<svg xmlns="http://www.w3.org/2000/svg" viewBox="240.61 53.07 767.47 1141.12" width="139" height="181" preserveAspectRatio="xMidYMid meet"><metadata xmlns:fl="https://football-logos.cc/spain/recreativo-huelva">dl1_9a0f6e7cd88ae9143ae1ff90e036c6f52c5af7cec2ec26c3ee5c4f3757de3b45</metadata><!-- Source: https://football-logos.cc --><path fill="#fec607" fill-rule="evenodd" d="M635.55 133.83q-12.12 4.44-23.78.13c-24.36-11.32-20.26-46.38 5.39-52.82a1.105 1.1 82.933 0 0 .83-1.07v-6.93a.8.8-87.06 0 0-.8-.8h-5.32a.81.81-50.856 0 1-.81-.81v-9.74a.55.54-90 0 1 .54-.55h5.66a.85.85 10.884 0 0 .85-.85v-6.82a.5.5-45 0 1 .5-.5h9.09a.73.73-62.753 0 1 .73.73v6.8a.59.59 71.638 0 0 .59.59h5.61a.73.72 0 0 1 .73.72v9.81a.47.47.067 0 1-.47.47h-5.17a1.39 1.38-90 0 0-1.38 1.39v5.73a1.972 1.97-85.772 0 0 1.68 1.95c9.61 1.45 18.49 10.9 20.77 20.64q3.73 15.97-8.03 27.36-2.3 2.23-7.21 4.57" data-source="https://football-logos.cc"></path><path fill="#fea308" fill-rule="evenodd" d="m635.55 133.83 2.84 5.69a1.051 1.04 77.498 0 0 .9.58l6.71.17.17.34a1.075 1.049 40.59 0 1 .07.78c-1.62 5.37-1.11 11.65 4.33 14.46 4.2 2.16 9.74 1.68 13.37-1.64q4.57-4.17 3.11-11.8l9.14.93q-1.79 4.18-1.38 7.88.44 3.97 3.59 6.99 6.56 6.33 15.36-.02a3.427 3.378.415 0 0 .7-.68q2.86-3.69 3.24-8.96l6.24 1.88q.07.25.06.52a.895.884-26.216 0 1-.17.49c-4.34 5.74-1.69 13.28 5.24 15.3 5.44 1.58 11.33-2.04 12.02-7.81a.779.769-8.795 0 1 .46-.62l.28-.12 5.61 2.03-.1.72a1.546 1.532 71.297 0 1-.42.86c-6.11 6.08-2.79 16.97 5.04 18.67q6.77 1.47 11.45-3.95 5.05-5.86-.12-15.57 3.2-.66 5.23.53-2.6 5.07-.16 10.39c2.27 4.95 9.46 6.87 14.13 3.51 1.78-1.28 3.12-4.02 4.45-6.01q2.12.76 4.75.81-.65 8.2 5.85 10.54 7.2 2.61 11.83-5.08l5.53 1.79q1.37 10.03 10.83 9.56 3.91-.2 6.9-3.96.73.8 2.18.57-.37 7.88 5 11.1 6.18 3.7 12.56-3.22.67 2.1 2.68 2.01-2.29 7.82 2.43 12.51 2.18 2.17 4.95 2.48c4.18.47 6.09-1.6 9.5-3.14l4.02 3.52q.06.7-.31 1.3c-4.26 7.05-2 15.51 5.85 18.14q5.67 1.9 12.28-2.34l3.12 4.57-.06.64a1.147 1.138 74.676 0 1-.48.85c-12.77 9.17-2.57 27.26 12.2 20.99a1.061 1.031 44.158 0 1 .81 0l.69.28q-.2 2.49 1.12 4.15-6.4 1.42-9.37 5.5-3.23 4.44-1.7 10.57 2.2 8.84 14.11 9.11l.01 4.18q-2.25.09-4.73.18-6.6.25-9.32 6.03c-2.57 5.44-1.48 11.99 3.66 15.33q3.12 2.02 7.59 2.35l-.53 3.26q-2.69-.24-5.79-.08c-9.91.53-12.52 13.73-5.54 19.57 1.4 1.17 3.92 1.9 5.76 2.96q-1.12.77-1.54 1.81-8.04-5.69-17.89-4.76a.852.851 1.843 0 1-.92-.98l1.73-10.77a.469.467-2.462 0 0-.58-.53q-.34.09-.72.38l.55-3.22q2.37-9.08 1.71-18.02.81-10.18.84-12.81.12-10.43-2.79-23.5-.82-3.69-1.53-5.49c-1.83-4.63-2.89-9.29-4.86-13.41q-6.44-13.5-14.13-21.56-7.28-7.62-10.53-10.19-3.11-2.47-11.59-7.75c-4.42-2.76-9.42-4.71-13.47-6.68q-4.66-2.27-10.53-4.15-16.21-5.19-31.5-6.15a1.363 1.354 3.855 0 0-1.44 1.25q-.32 3.84 1.92 7.73a.896.894 74.675 0 0 .77.44h5.52a.151.15 87.952 0 1 .15.14l.04.36a.222.221 83.794 0 1-.2.25q-1.51.13-2.32.12c-13.52-.12-16.91 18.94-3.89 23.01 3.45 1.09 8.59 1.04 11.31-1.82a.781.756 28.636 0 1 .76-.21l.29.07 1.72 6.04c-4.12 2.66-8.52 3.94-9.86 9.21q-1.05 4.12.75 8.4c2.12 5.01 6.65 7.04 12.09 6.76q1.76-.09 3.39-.08l.53 2.73q-2.23.99-4.84 1.56-3.61.8-4.77 1.57c-5.63 3.74-5.9 11.85-1.73 16.82 3.02 3.6 7.23 2.97 11.24 3.49l-.61 8.01q-2.95-.81-6.18-.42c-6.35.76-8.72 7.32-6.35 12.82q.92 2.13 4.65 5.65-2.74 1.21-5.47 2.25-4.22 1.61-4.27 4.55-1.23.49-2.75.24a1.12 1.116 78.414 0 1-.77-.51l-1.76-2.84q4.15-24.34 1.3-51.71-.29-2.83-1.48-3.69.81-.18.65-1.01-1.86-9.25-3.81-15.97c-1.85-6.42-4.87-14.82-9.09-20.66-3.08-4.28-5.83-9.82-9.87-14.2q-6.68-7.22-14.04-13.1c-3.4-2.71-7.82-4.99-10.85-6.96q-3.93-2.56-8.65-4.49-10.2-4.18-18.32-6.74-8.24-2.6-19.02-4.2-12.35-1.84-24.1-2.19a1.109 1.099-4.94 0 0-1.12 1.32l2.26 11.02q.5 2.02.57 2.64 3.1 28.67-.46 57.26-.24 1.89-.31 4.45-.07 2.17-.28 4.48-.21.1-.48.44a1.682 1.614 69.46 0 0-.37.86q-2.73 21.53-7.94 49.23-.12.64.68.9L637.5 295a2.354 2.322-45.392 0 1-1.46.02c-2.84-.88-4.81-1.69-7.8-.48a1.6 1.575-49.528 0 1-.92.08l-2.21-.48a3.181 3.148-41.927 0 0-1.03-.05l-10.99 1.19a2.852 2.795-38.459 0 1-1.15-.12l-4.71-1.57q1.11-.26.95-1.1-5.68-29.69-8.89-49.99-1.61-11.91-2.37-23.31-1.23-18.35-.11-36.7c.16-2.75.83-5.93 1.03-8.95l2.62-11.24a.696.695-83.286 0 0-.67-.85c-8.68-.11-16.3 1.29-26 2.4q-7.41.84-18.48 4.17-4.94 1.48-7.7 2.72-4.28 1.92-6.72 2.86-15.02 5.8-27.43 16.18c-3.07 2.57-6.56 6.96-9.24 9.46q-3.19 2.98-6.09 7.76-6.28 10.37-6.76 11.63-3.24 8.54-6.3 16.48-1.72 4.48-3.12 16.6-2.59 17.39-1.52 32.29.35 4.82 2.47 22.51l-5.55 2.56c-1.62-3.87-4.65-4.14-7.86-5.44q.45-.65.48-1.46c.07-2.01 2.16-3.45 2.82-5.43 2.07-6.24-1.35-13.57-8.79-12.73q-2.38.27-4.33.98l-1.14-8.31q8.43 1.1 12.19-4.68c2.9-4.46 2.41-10.79-1.36-14.59q-3.83-3.87-10.81-3.41l.49-3.05q1.78-.11 3.81-.13c8.91-.12 13.81-6.45 11.67-15.29q-1.62-6.74-10.05-8.8 1.75-2.93 2-5.73l.59.09a1.987 1.912 67.911 0 1 .92.41q3.18 2.51 7.8 1.75c6.23-1.03 11.75-4.95 11.29-11.94q-.65-10.06-10.07-11.85a.37.369 32.253 0 1-.15-.66q2.85-2.11 4.43-4.78a.578.576 46.633 0 1 1.01.03q3.56 6.97 10.68 5.68c13.02-2.35 11.01-23.05-3.91-20.11-2.68.53-6.96 3.63-7.45 7.27q-.13.95-.32 1.57a1.005.993-83.548 0 1-.88.71q-18.85 1.45-38.17 8.74c-2.98 1.12-5.15 2.46-8.06 3.51-9.12 3.3-18 10.09-25.32 16.93q-14.29 13.35-21.35 30.64c-3.84 9.38-6.1 18.2-6.79 28.44q-.3 4.44-.88 10.89-.31 3.47 1.3 8.24-.49 10.52-.34 14.17.14 3.33 1.47 8.19l4.05 15.32c-6.34-1.15-12.02-.92-18.24 1.33a.246.242 12.457 0 1-.26-.4c1.59-1.58 3.41-2.99 4.18-4.84 2.91-6.95.76-15.04-7.58-15.92q-3.53-.38-6.54-.04-.38-1.27-.24-2.64c.58-.46 1.21-.88 1.98-1.04 12.69-2.58 13.9-19.4.9-23q-1.25-.34-5.55-.79-.48-1.43-.1-2.85.11-.27.31-.47a.821.808 21.328 0 1 .63-.27c5.92.14 11.61-2.74 12.7-8.97q.92-5.3-1.15-9.18-2.7-5.06-9.25-6.55 1.08-1.85 1.55-4.42 10.69 3.65 15.55-3.36c4.41-6.38 2.12-12.02-2.69-17.11a1.638 1.591 20.034 0 1-.43-.89l-.16-1.06q1.45-1.61 2.4-4.04 5.75 4.19 11.17 3.03 5.85-1.25 8.12-6.15 3.31-7.12-2.36-14.33 2.83-.91 4.85-3.83 3.6 3.12 7.42 3.55 4.48.51 7.53-2.69 3.91-4.12 1.74-11.89 1.35-.05 2.16-.99 4.86 2.88 7.07 2.86 7.52-.06 9.48-7.13a1.363 1.137-39.848 0 0 .04-.22l.48-4.73 2.13-.56q.09-.08.6 0a1.461 1.434-15.616 0 1 .89.49q3.82 4.36 9.67 2.41c2.94-.98 5.36-3 6.04-6.1q.31-1.41.52-2.64l5.54-1.6q2.54 4.74 7.34 4.94 10.35.43 9.8-10.37 2.19.11 5.06-1.35 3.37 8.02 10.39 7.47c4.92-.38 8.12-4.16 8.53-9.02q.13-1.59.26-2.97l2.1-.95q-.08 6.3.32 8.34.71 3.57 4.08 6.16c4.79 3.67 11.45 2.38 15.16-2.47q3.82-4.99 1.78-11.52-.85-2.74-3.77-4.92l6.7-2.44q2.03 6.99 6.9 8.54 5.73 1.83 10.53-2.77 4.94-4.73.4-13.28 3.6-.22 6.51-2.28.87 8.81 6.57 11.99c5.16 2.88 10.86.71 14.31-3.64q2.09-2.64 1.97-5.61-.12-2.92-1.39-7.82l10.56-1.3q-2.51 10.93 5.73 14.5c5.21 2.26 9.87.47 13.26-3.71 2.63-3.23 1.81-7.43.6-11.46q-.36-1.21.82-1.4l6.17.02a.868.849 13.74 0 0 .76-.45l2.9-5.48q11.66 4.31 23.78-.13m-10.746 7.19a10.93 10.72-85.1 0 0-11.615 9.974 10.93 10.72-85.1 0 0 9.747 11.806 10.93 10.72-85.1 0 0 11.615-9.974 10.93 10.72-85.1 0 0-9.747-11.806m2.335 26.024a13.11 12.73-76.1 0 0-15.506 9.668 13.11 12.73-76.1 0 0 9.208 15.784 13.11 12.73-76.1 0 0 15.506-9.668 13.11 12.73-76.1 0 0-9.208-15.784m131.939 12.073a10.49 10.07-69.3 0 0-13.128 6.254 10.49 10.07-69.3 0 0 5.712 13.372 10.49 10.07-69.3 0 0 13.128-6.254 10.49 10.07-69.3 0 0-5.712-13.372M637.82 210.25a13.64 13.64 0 0 0-13.64-13.64 13.64 13.64 0 0 0-13.64 13.64 13.64 13.64 0 0 0 13.64 13.64 13.64 13.64 0 0 0 13.64-13.64m-9.369 18.188a13.99 13.81-70.8 0 0-17.643 8.67 13.99 13.81-70.8 0 0 8.441 17.754 13.99 13.81-70.8 0 0 17.643-8.67 13.99 13.81-70.8 0 0-8.441-17.754m-4.744 61.024q3.104.067 3.82-.12 13.933-3.642 11.369-18.123c-1.299-7.339-7.265-12.08-14.536-12.236-7.27-.156-13.435 4.325-15.047 11.601q-3.182 14.358 10.582 18.594.707.218 3.812.284"></path><path fill="#fec607" fill-rule="evenodd" d="M667.05 142.41q1.46 7.63-3.11 11.8c-3.63 3.32-9.17 3.8-13.37 1.64-5.44-2.81-5.95-9.09-4.33-14.46a1.075 1.049 40.59 0 0-.07-.78l-.17-.34q4.51-6.81 12.04-5.59 6.06.97 9.01 7.73M601.94 139.87q-1.18.19-.82 1.4c1.21 4.03 2.03 8.23-.6 11.46-3.39 4.18-8.05 5.97-13.26 3.71q-8.24-3.57-5.73-14.5.61-.84 1.2-1.93c3.76-6.94 13.09-6.16 17.66-.82a1.469 1.456-12.226 0 0 .69.44zM697.7 148.55q-.38 5.27-3.24 8.96a3.427 3.378.415 0 1-.7.68q-8.8 6.35-15.36.02-3.15-3.02-3.59-6.99-.41-3.7 1.38-7.88 2.91-5 8.36-5.5 5.07-.46 8.98 2.49 3.89 2.93 4.17 8.22M570.97 143.24q1.27 4.9 1.39 7.82.12 2.97-1.97 5.61c-3.45 4.35-9.15 6.52-14.31 3.64q-5.7-3.18-6.57-11.99-.03-4.84 4.45-7.86 3.8-2.57 7.74-2.35 4.06.21 7.32 3.37 1.19 1.14 1.95 1.76M624.804 141.02a10.93 10.72-85.1 0 1 9.747 11.806 10.93 10.72-85.1 0 1-11.615 9.974 10.93 10.72-85.1 0 1-9.747-11.806 10.93 10.72-85.1 0 1 11.615-9.974M543 150.6q4.54 8.55-.4 13.28-4.8 4.6-10.53 2.77-4.87-1.55-6.9-8.54-.45-9.19 8.88-10.91 5.53-1.02 8.95 3.4M721.83 158.19l-.28.12a.779.769-8.795 0 0-.46.62c-.69 5.77-6.58 9.39-12.02 7.81-6.93-2.02-9.58-9.56-5.24-15.3a.895.884-26.216 0 0 .17-.49q.01-.27-.06-.52 1.11-.59 2.26-1.46 3.3-2.46 6.78-2.11c4.44.44 8.49 4.6 8.57 8.91q.03 1.74.28 2.42M743.29 160.95q5.17 9.71.12 15.57-4.68 5.42-11.45 3.95c-7.83-1.7-11.15-12.59-5.04-18.67a1.546 1.532 71.297 0 0 .42-.86l.1-.72q4.78-3.03 9.81-2.04c2.1.42 3.86 1.99 6.04 2.77"></path><path fill="#fec607" fill-rule="evenodd" d="M766.94 169.37c-1.33 1.99-2.67 4.73-4.45 6.01-4.67 3.36-11.86 1.44-14.13-3.51q-2.44-5.32.16-10.39 3.56-2.6 7.08-3.2c6.97-1.2 11.82 4.09 11.34 11.09M518.47 160.55q2.92 2.18 3.77 4.92 2.04 6.53-1.78 11.52c-3.71 4.85-10.37 6.14-15.16 2.47q-3.37-2.59-4.08-6.16-.4-2.04-.32-8.34 7.35-10.3 17.57-4.41M498.8 165.91q-.13 1.38-.26 2.97c-.41 4.86-3.61 8.64-8.53 9.02q-7.02.55-10.39-7.47-1.09-5.27 2.25-8.64 3.49-3.54 8.46-3.01 5.63.61 8.47 7.13M597.84 173.54c-33.63 3.98-63.05 18.25-86.67 42.05q-7.82 7.87-11.34 12.48-5.95 7.77-10.52 13.25-1.86 2.24-5.8 9.04.13.32-1.56 1.35 1.4-12.12 3.12-16.6 3.06-7.94 6.3-16.48.48-1.26 6.76-11.63 2.9-4.78 6.09-7.76c2.68-2.5 6.17-6.89 9.24-9.46q12.41-10.38 27.43-16.18 2.44-.94 6.72-2.86 2.76-1.24 7.7-2.72 11.07-3.33 18.48-4.17c9.7-1.11 17.32-2.51 26-2.4a.696.695-83.286 0 1 .67.85zM765.31 250.81l-2.83-1.73q-3.93-9.21-10.41-15.97a5.984 5.866-84.233 0 1-.6-.75c-2.04-3.04-3.91-5.76-6.91-8.88q-5.31-5.5-7.44-8.01-2.65-3.11-4.47-4.59c-6.59-5.36-12.87-10.83-20.12-15.45q-28.65-18.28-63.18-21.8l-2.26-11.02a1.109 1.099-4.94 0 1 1.12-1.32q11.75.35 24.1 2.19 10.78 1.6 19.02 4.2 8.12 2.56 18.32 6.74 4.72 1.93 8.65 4.49c3.03 1.97 7.45 4.25 10.85 6.96q7.36 5.88 14.04 13.1c4.04 4.38 6.79 9.92 9.87 14.2 4.22 5.84 7.24 14.24 9.09 20.66q1.95 6.72 3.81 15.97.16.83-.65 1.01M789.37 175.64q-4.63 7.69-11.83 5.08-6.5-2.34-5.85-10.54 1.99-5.19 6.42-6.17 4.86-1.09 8.71 2.21 3.8 3.27 2.55 9.42M474.56 171.78q.55 10.8-9.8 10.37-4.8-.2-7.34-4.94-1.71-6.51 1.94-9.73 3.72-3.28 8.86-2.1 4.58 1.04 6.34 6.4M627.139 167.044a13.11 12.73-76.1 0 1 9.208 15.784 13.11 12.73-76.1 0 1-15.506 9.668 13.11 12.73-76.1 0 1-9.208-15.784 13.11 12.73-76.1 0 1 15.506-9.668M812.63 183.03q-2.99 3.76-6.9 3.96-9.46.47-10.83-9.56.91-5.78 5.44-7.96c4.64-2.25 10.77-.55 13.01 4.24q1.99 4.25-.72 9.32M451.88 178.81q-.21 1.23-.52 2.64c-.68 3.1-3.1 5.12-6.04 6.1q-5.85 1.95-9.67-2.41a1.461 1.434-15.616 0 0-.89-.49q-.51-.08-.6 0-2.67-5.86.07-10.43 2.66-4.42 8.27-4.12 8.03.43 9.38 8.71M832.37 191.48q-6.38 6.92-12.56 3.22-5.37-3.22-5-11.1 3.16-8.2 11.49-6.94c4.19.63 6.98 4.21 7.71 8.31q.73 4.14-1.64 6.51M432.03 185.21l-.48 4.73a1.363 1.137-39.848 0 1-.04.22q-1.96 7.07-9.48 7.13-2.21.02-7.07-2.86l-1.67-3.51a4.185 3.997 31.159 0 1-.39-1.44c-.58-7.37 5.63-12.88 12.72-10.65q4.24 1.33 6.41 6.38M759.078 179.117a10.49 10.07-69.3 0 1 5.712 13.372 10.49 10.07-69.3 0 1-13.128 6.254 10.49 10.07-69.3 0 1-5.712-13.372 10.49 10.07-69.3 0 1 13.128-6.254M466.47 221q.01-.24-.07-.51-.07-.23-.3-.45-5.94-5.8-2.65-13.85a.434.432 12.764 0 0-.38-.6l-8.02-.38a6.778 6.717-49.658 0 0-1.86.16q-21.58 4.93-37.27 20.29c-19.22 18.83-31.05 44.44-34.78 70.9q-1.61-4.77-1.3-8.24.58-6.45.88-10.89c.69-10.24 2.95-19.06 6.79-28.44q7.06-17.29 21.35-30.64c7.32-6.84 16.2-13.63 25.32-16.93 2.91-1.05 5.08-2.39 8.06-3.51q19.32-7.29 38.17-8.74a1.005.993-83.548 0 0 .88-.71q.19-.62.32-1.57c.49-3.64 4.77-6.74 7.45-7.27 14.92-2.94 16.93 17.76 3.91 20.11q-7.12 1.29-10.68-5.68a.578.576 46.633 0 0-1.01-.03q-1.58 2.67-4.43 4.78a.37.369 32.253 0 0 .15.66q9.42 1.79 10.07 11.85c.46 6.99-5.06 10.91-11.29 11.94q-4.62.76-7.8-1.75a1.987 1.912 67.911 0 0-.92-.41zM851.93 205.34c-3.41 1.54-5.32 3.61-9.5 3.14q-2.77-.31-4.95-2.48-4.72-4.69-2.43-12.51c4.08-6.82 12.88-7.06 17.41-.43q4.32 6.31-.53 12.28"></path><path fill="#fec607" fill-rule="evenodd" d="M867.66 300.31q-1.94-13.05-5.8-25.63-7.03-22.94-22.74-41.81-9.68-11.64-23.01-20.04c-4.96-3.13-10.52-4.75-15.15-6.66-5.36-2.21-11.03-1.69-17-.88a.358.358-13.387 0 0-.29.47q2.52 7.59-2.92 13.24-.17.17-.27.96l-.29-.07a.781.756 28.636 0 0-.76.21c-2.72 2.86-7.86 2.91-11.31 1.82-13.02-4.07-9.63-23.13 3.89-23.01q.81.01 2.32-.12a.222.221 83.794 0 0 .2-.25l-.04-.36a.151.15 87.952 0 0-.15-.14h-5.52a.896.894 74.675 0 1-.77-.44q-2.24-3.89-1.92-7.73a1.363 1.354 3.855 0 1 1.44-1.25q15.29.96 31.5 6.15 5.87 1.88 10.53 4.15c4.05 1.97 9.05 3.92 13.47 6.68q8.48 5.28 11.59 7.75 3.25 2.57 10.53 10.19 7.69 8.06 14.13 21.56c1.97 4.12 3.03 8.78 4.86 13.41q.71 1.8 1.53 5.49 2.91 13.07 2.79 23.5-.03 2.63-.84 12.81M412.8 195.42q2.17 7.77-1.74 11.89-3.05 3.2-7.53 2.69-3.82-.43-7.42-3.55-3.35-3.51-2.02-8.49c1.36-5.1 6.59-8.27 11.73-7.56q4.62.64 6.98 5.02M637.82 210.25a13.64 13.64 0 0 1-13.64 13.64 13.64 13.64 0 0 1-13.64-13.64 13.64 13.64 0 0 1 13.64-13.64 13.64 13.64 0 0 1 13.64 13.64M873.77 225.96q-6.61 4.24-12.28 2.34c-7.85-2.63-10.11-11.09-5.85-18.14q.37-.6.31-1.3 5.8-5.87 12.6-3.76c6.97 2.17 11.48 10.44 7.79 17.47q-1.17 2.25-2.57 3.39M391.26 210.28q5.67 7.21 2.36 14.33-2.27 4.9-8.12 6.15-5.42 1.16-11.17-3.03-3.45-3.31-3.55-8.03c-.16-7.63 6.08-13.41 13.56-12.55q4.02.46 6.92 3.13"></path><path fill="#fec607" fill-rule="evenodd" d="M788.57 250.29q-1.63-.01-3.39.08c-5.44.28-9.97-1.75-12.09-6.76q-1.8-4.28-.75-8.4c1.34-5.27 5.74-6.55 9.86-9.21q10.68.03 13.51 8.22 1.73 4.99-.29 9.45-1.98 4.36-6.85 6.62M464.47 226.73q8.43 2.06 10.05 8.8c2.14 8.84-2.76 15.17-11.67 15.29q-2.03.02-3.81.13-6.73-2.99-7.7-10.08-.79-5.74 2.8-10.24 4.13-5.17 10.33-3.9M628.451 228.438a13.99 13.81-70.8 0 1 8.441 17.754 13.99 13.81-70.8 0 1-17.643 8.67 13.99 13.81-70.8 0 1-8.441-17.754 13.99 13.81-70.8 0 1 17.643-8.67M890.05 253.29l-.69-.28a1.061 1.031 44.158 0 0-.81 0c-14.77 6.27-24.97-11.82-12.2-20.99a1.147 1.138 74.676 0 0 .48-.85l.06-.64q.11.07.28.14a1.105 1.09 45.398 0 0 .72.01c6.84-2.45 13.45.26 16.32 6.8q3.41 7.76-3.43 14.68-.01.01-.46.31-.41.28-.27.82M371.93 231.77l.16 1.06a1.638 1.591 20.034 0 0 .43.89c4.81 5.09 7.1 10.73 2.69 17.11q-4.86 7.01-15.55 3.36-4.91-3.04-5.72-7.91c-1.7-10.21 7.47-18.07 17.3-14.34q.49.18.69-.17"></path><path fill="#a41116" fill-rule="evenodd" d="M599.29 242.5q3.21 20.3 8.89 49.99.16.84-.95 1.1c-5.5 1.34-3.69 10.62-3.15 14.64.62 4.55 3.48 5.23 5.91 6.73a1.2 1.2 32.596 0 1 .37 1.68l-2.56 3.92a.591.588-43.711 0 1-1-.02q-2.62-4.44-6.66-6.18c-6.55-2.83-13.92-3.48-16.16 5.12q-.4 1.54-.31 5.64a1.915 1.89-30.583 0 1-.28 1.06c-.55.92-1.45 1.52-1.93 2.61q-2.66 6.06 1.32 11.51a2.627 2.62 31.395 0 1 .47 1.93c-1.42 9.48 4.28 14.9 13.41 13.16q6.34-1.21 9.23-7.74a.448.443-64.836 0 1 .6-.22l9.6 4.65a2.879 2.86 9.041 0 1 1.6 2.19c2.16 15.26-8.73 25.18-23.33 25.83q-21.01.94-31.49-15.96-3.84-6.19-5.63-12.87a.85.849 69.203 0 1 .44-.98c9.83-4.86 3.33-19.93-6.94-16.06q-4.38 1.65-5.18 6.2-1.42 8.06 5.83 10.74a1.021 1.014 2.375 0 1 .63.68q3.1 10.72-.58 20.84c-2.87 7.91-9.71 12.43-17.61 14.74-10.91 3.18-20.38-2.27-24.26-12.77a1.485 1.484 59.947 0 1 .44-1.65q4.27-3.6 6.53-8.81a.866.864-51.449 0 1 1.49-.17q4.39 5.93 10.95 4.8c9.78-1.69 8.49-11.26 4.69-17.75a1.381 1.321 34.843 0 1-.18-.89q.05-.35.36-.87c3.01-5.2.56-10.75-4.19-13.89a2.54 2.512-71.776 0 1-1.13-2.27c.28-4.61-2.55-13.59-8.73-12.29q-8.43 1.77-10.9 10.75a1.061 1.058-84.967 0 1-.94.79q-2.3.21-2.77.62a.485.483-32.97 0 1-.76-.16l-1.47-3.31a.848.84 53.402 0 1 .13-.91q2.06-2.34 3.06-4.86a2.9 2.851 47.876 0 0 .08-1.92q-.45-1.47-.49-7.3c-.02-4.61-2.82-9.31-7.42-10.48q-2.63-.66-6.72 1.6a4.968 4.905 29.421 0 1-2.28.62l-6.42.2q-2.12-17.69-2.47-22.51-1.07-14.9 1.52-32.29 1.69-1.03 1.56-1.35 9.51-4.72 14.11-6.74 25.22-11.03 51.51-11.57 24.87-.5 50.16 10.45M762.48 249.08l2.83 1.73q1.19.86 1.48 3.69 2.85 27.37-1.3 51.71-2.04-.61-4.03-.58c-1.1.01-1.88.69-2.65.8a1.221 1.202-30.077 0 1-.93-.24q-.83-.66-2.07-1.23c-5.73-2.62-10.74-.47-12.52 5.29q-.86 2.76-.83 4.52.09 5.59-.13 6.49c-.73 2.95.77 5.54 2.62 7.18a1.477 1.462 25.816 0 1 .47 1.33l-.53 3.32a.619.615-69.598 0 1-.93.43q-1.65-1.02-3.37-.65a.809.801 79.35 0 1-.97-.67q-1-6.64-6.33-10.08-4.52-2.93-8.33-.82c-4.28 2.36-5.48 7.62-5.54 12.68a1.312 1.306 69.312 0 1-.44.98q-1.05.94-1.98 1.79-6.28 5.76-1.92 13a.858.848-44.674 0 1-.01.88c-3.16 5.16-5.69 13.9 1.05 17.29 5.44 2.73 10.89.4 14.44-4.22a.867.866 51.889 0 1 1.48.18q2.38 5.43 6.19 9.08a1.823 1.817-57.398 0 1 .43 1.97q-1.53 3.96-5.19 7.79c-8.38 8.76-20.12 5.9-28.96-.55q-7.32-5.34-8.8-14.71-1.41-8.88.56-15.7a1.276 1.234 83.447 0 1 .56-.73q.81-.5 1.56-.83c3.41-1.49 5.04-5.58 4.64-8.94-.79-6.74-8.61-10.29-13.98-5.73-4.95 4.21-4.15 12.66 2.34 14.94a.71.707 17.486 0 1 .45.86q-2.54 9.35-8.63 16.55-13.75 16.24-34.66 11.48-20.05-4.57-17.98-25.84a1.458 1.445 79.292 0 1 .77-1.14l10.23-5.29a.963.952-25.079 0 1 1.32.47l1.59 3.74a1.5 1.348-81.748 0 0 .26.39q2.31 2.44 3.24 2.62c6.07 1.2 11.4 3.54 15.69-2.67 2.03-2.93 1.77-6.27 1.69-9.93a2.305 2.293 60.985 0 1 .36-1.27q4.52-6.98-.27-13.8a2.68 2.627-60.862 0 1-.47-1.72c.41-4.99-1.19-11.38-6.78-12.45-3.06-.59-6.6 1.31-8.91 1.58-3.46.4-5.56 2.89-7.05 6.09a.676.672 40.453 0 1-1.17.09q-1.08-1.6-2.86-2.55a.871.862 25.936 0 1-.39-1.11l1-2.34a1.304 1.303 4.11 0 1 .89-.77q4.37-1.11 4.76-5.99.36-4.54-.02-10.93-.16-2.73-3.69-2.65-.8-.26-.68-.9 5.21-27.7 7.94-49.23a1.682 1.614 69.46 0 1 .37-.86q.27-.34.48-.44c37.45-16.55 77.75-12.37 113.61 6.62"></path><path fill="#fec607" fill-rule="evenodd" d="M795.13 256.63q5.56 9.37-1.06 16.67-1.47 1.62-5.07 3.16c-4.01-.52-8.22.11-11.24-3.49-4.17-4.97-3.9-13.08 1.73-16.82q1.16-.77 4.77-1.57 2.61-.57 4.84-1.56zM458.55 254q6.98-.46 10.81 3.41c3.77 3.8 4.26 10.13 1.36 14.59q-3.76 5.78-12.19 4.68-8.49-3.71-7.92-13.19.16-2.53 3.18-6.87 1.07-.66 3.32-1.29 1.53-.42 1.44-1.33"></path><path fill="#a41116" fill-rule="evenodd" d="M453.79 256.62q-3.02 4.34-3.18 6.87-.57 9.48 7.92 13.19l1.14 8.31q-5.8 4.75-4 10.9c1.47 5.01 5.96 7.54 10.94 6.7a2.264 2.21-34.595 0 1 1.46.25l1.42.79c3.21 1.3 6.24 1.57 7.86 5.44-1.92 1.14-4.24 1.12-5.78 2.39-5.29 4.34-.08 14.15 2.79 19.17 1.7 2.97 3.78 3.85 7.1 4.53a1.104 1.1 19.971 0 1 .75 1.6q-.85 1.6-1 3.31a.89.89-10.59 0 1-.48.7q-1.32.63-2.32.54a1.288 1.275-16.367 0 1-.89-.48c-3.91-5.02-14.31-7.67-17.15.09-1.5 4.08.08 8.76 1.64 12.35a1.595 1.549 40.476 0 1 .09.96q-.29 1.32-.45 1.85-2.48 8.52 4.51 13.07a1.939 1.929-75.256 0 1 .87 1.5c.37 6.09 4.37 17.86 13.1 13q6.65-3.71 6.7-11.05a.575.573 2.732 0 1 .63-.57q2.26.22 3.52-.13a1.119 1.112 58.989 0 1 1.07.27q3.25 3.07 7.54 3.61a.908.903 1.898 0 1 .8.85c1.31 25.28-38.73 25.42-46.99 7.41q-2.1-4.57-.9-9.29a1.219 1.215 7.559 0 0-1.16-1.51q-2.1-.04-2.74-.84a1.077 1.075-55.066 0 1-.18-1.02q1.13-3.51 4.01-5.83a.841.84 36.691 0 0-.21-1.43q-5.03-2.06-10.51-.88a.413.412 8.165 0 1-.45-.6q1.79-3.25 2.69-6.45c2.27-8.05-.79-15.87-9.79-17.1-12.78-1.76-22.01 9.12-25.73 20.19-.59 1.73-1.63 3.25-3.15 3.98a.401.397-9.009 0 1-.57-.41c1.63-12.47-7.22-23.96-18.39-28.61l-4.05-15.32c13.04-25.22 32.97-45.73 58.75-57.67q4.21-1.96 12.77-4.63M795.13 256.63c24.86 7.48 45.99 23.79 61.04 44.7q2.82 3.92 9.78 17l-.55 3.22-2.9 12.06a1.205 1.201-6.255 0 1-.66.82q-1.85.9-4.09 2.08c-9.48 4.98-14.98 16.23-13.82 27.03a.577.573 16.081 0 1-.93.51q-1.13-.9-1.52-2.01c-4.37-12.3-13.96-26.82-29.14-22.36-10.95 3.22-10.59 15.26-4.92 22.95a.412.411 79.602 0 1-.44.64q-5.74-1.54-10.99.41a.945.94-34.877 0 0-.29 1.6q3.04 2.61 4.15 6.68a.597.588-10.868 0 1-.51.74l-2.88.31a1.123 1.121 79.11 0 0-.96 1.42c2.61 9.14-4.77 17.2-12.97 20.05-13.84 4.82-35.39 1.76-34.66-17.59a1.476 1.466 85.491 0 1 1.17-1.38q4.26-.88 8.05-3.45.79-.54 3.71-.27a.694.691 3.525 0 1 .63.71q-.18 6.9 5.63 10.68c7.1 4.62 12.62-2.32 13.72-8.67q.31-1.82.7-4.04a1.525 1.504-14.345 0 1 .56-.93q7.78-6.05 4.32-15.54a1.766 1.744 49.61 0 1 .11-1.48c3.76-6.7 2.57-18.47-8.16-16.41q-4.49.86-7.77 4.76a1.542 1.542-30.607 0 1-2.69-.69q-.44-2.17-1.38-3.59a.742.74 65.911 0 1 .43-1.13q3.39-.85 5.58-2.66a3.865 3.812 87.115 0 0 .74-.83q3.65-5.68 5.42-12.79.75-2.98.33-5.12c-.76-3.92-4.98-3.99-8.2-4.74q.05-2.94 4.27-4.55 2.73-1.04 5.47-2.25l4.87-.4a2.134 1.851-48.563 0 0 .28-.04c8.87-2.39 9.85-12.36 2.73-17.61l.61-8.01q3.6-1.54 5.07-3.16 6.62-7.3 1.06-16.67"></path><path fill="#fec607" fill-rule="evenodd" d="M894.21 282.62q-11.91-.27-14.11-9.11-1.53-6.13 1.7-10.57 2.97-4.08 9.37-5.5 8.37.44 11.36 7.07 2.54 5.65.2 11.06-2.27 5.24-8.52 7.05M358.11 258.61q6.55 1.49 9.25 6.55 2.07 3.88 1.15 9.18c-1.09 6.23-6.78 9.11-12.7 8.97a.821.808 21.328 0 0-.63.27q-.2.2-.31.47-.07-.14-.15-.25a.79.744 78.965 0 0-.46-.33q-7.64-1.98-9.16-9.77c-1-5.12.84-10.45 5.36-13.37q3.46-2.25 7.65-1.72M624.36 258.983c7.271.156 13.237 4.897 14.536 12.236q2.564 14.481-11.369 18.123-.716.187-3.82.12-3.105-.066-3.812-.284-13.764-4.236-10.582-18.594c1.612-7.276 7.777-11.757 15.047-11.601M469.49 303.63l-1.42-.79a2.264 2.21-34.595 0 0-1.46-.25c-4.98.84-9.47-1.69-10.94-6.7q-1.8-6.15 4-10.9 1.95-.71 4.33-.98c7.44-.84 10.86 6.49 8.79 12.73-.66 1.98-2.75 3.42-2.82 5.43q-.03.81-.48 1.46M788.39 284.47c7.12 5.25 6.14 15.22-2.73 17.61a2.134 1.851-48.563 0 1-.28.04l-4.87.4q-3.73-3.52-4.65-5.65c-2.37-5.5 0-12.06 6.35-12.82q3.23-.39 6.18.42M354.97 286.9q4.3.45 5.55.79c13 3.6 11.79 20.42-.9 23-.77.16-1.4.58-1.98 1.04q-8.71-1.41-11-8.63-1.67-5.25.8-9.73 2.32-4.2 7.53-6.47M894.22 286.8q10.1 4.58 7.54 14.95-1.93 7.87-10.34 8.94-4.47-.33-7.59-2.35c-5.14-3.34-6.23-9.89-3.66-15.33q2.72-5.78 9.32-6.03 2.48-.09 4.73-.18M607.23 293.59l4.71 1.57a2.852 2.795-38.459 0 0 1.15.12l10.99-1.19a3.181 3.148-41.927 0 1 1.03.05l2.21.48a1.6 1.575-49.528 0 0 .92-.08c2.99-1.21 4.96-.4 7.8.48a2.354 2.322-45.392 0 0 1.46-.02l3.26-1.11q3.53-.08 3.69 2.65.38 6.39.02 10.93-.39 4.88-4.76 5.99a1.304 1.303 4.11 0 0-.89.77l-1 2.34a.871.862 25.936 0 0 .39 1.11q1.78.95 2.86 2.55a.676.672 40.453 0 0 1.17-.09c1.49-3.2 3.59-5.69 7.05-6.09 2.31-.27 5.85-2.17 8.91-1.58 5.59 1.07 7.19 7.46 6.78 12.45a2.68 2.627-60.862 0 0 .47 1.72q4.79 6.82.27 13.8a2.305 2.293 60.985 0 0-.36 1.27c.08 3.66.34 7-1.69 9.93-4.29 6.21-9.62 3.87-15.69 2.67q-.93-.18-3.24-2.62a1.5 1.348-81.748 0 1-.26-.39l-1.59-3.74a.963.952-25.079 0 0-1.32-.47l-10.23 5.29a1.458 1.445 79.292 0 0-.77 1.14q-2.07 21.27 17.98 25.84 20.91 4.76 34.66-11.48 6.09-7.2 8.63-16.55a.71.707 17.486 0 0-.45-.86c-6.49-2.28-7.29-10.73-2.34-14.94 5.37-4.56 13.19-1.01 13.98 5.73.4 3.36-1.23 7.45-4.64 8.94q-.75.33-1.56.83a1.276 1.234 83.447 0 0-.56.73q-1.97 6.82-.56 15.7 1.48 9.37 8.8 14.71c8.84 6.45 20.58 9.31 28.96.55q3.66-3.83 5.19-7.79a1.823 1.817-57.398 0 0-.43-1.97q-3.81-3.65-6.19-9.08a.867.866 51.889 0 0-1.48-.18c-3.55 4.62-9 6.95-14.44 4.22-6.74-3.39-4.21-12.13-1.05-17.29a.858.848-44.674 0 0 .01-.88q-4.36-7.24 1.92-13 .93-.85 1.98-1.79a1.312 1.306 69.312 0 0 .44-.98c.06-5.06 1.26-10.32 5.54-12.68q3.81-2.11 8.33.82 5.33 3.44 6.33 10.08a.809.801 79.35 0 0 .97.67q1.72-.37 3.37.65a.619.615-69.598 0 0 .93-.43l.53-3.32a1.477 1.462 25.816 0 0-.47-1.33c-1.85-1.64-3.35-4.23-2.62-7.18q.22-.9.13-6.49-.03-1.76.83-4.52c1.78-5.76 6.79-7.91 12.52-5.29q1.24.57 2.07 1.23a1.221 1.202-30.077 0 0 .93.24c.77-.11 1.55-.79 2.65-.8q1.99-.03 4.03.58l1.76 2.84a1.12 1.116 78.414 0 0 .77.51q1.52.25 2.75-.24c3.22.75 7.44.82 8.2 4.74q.42 2.14-.33 5.12-1.77 7.11-5.42 12.79a3.865 3.812 87.115 0 1-.74.83q-2.19 1.81-5.58 2.66a.742.74 65.911 0 0-.43 1.13q.94 1.42 1.38 3.59a1.542 1.542-30.607 0 0 2.69.69q3.28-3.9 7.77-4.76c10.73-2.06 11.92 9.71 8.16 16.41a1.766 1.744 49.61 0 0-.11 1.48q3.46 9.49-4.32 15.54a1.525 1.504-14.345 0 0-.56.93q-.39 2.22-.7 4.04c-1.1 6.35-6.62 13.29-13.72 8.67q-5.81-3.78-5.63-10.68a.694.691 3.525 0 0-.63-.71q-2.92-.27-3.71.27-3.79 2.57-8.05 3.45a1.476 1.466 85.491 0 0-1.17 1.38c-.73 19.35 20.82 22.41 34.66 17.59 8.2-2.85 15.58-10.91 12.97-20.05a1.123 1.121 79.11 0 1 .96-1.42l2.88-.31a.597.588-10.868 0 0 .51-.74q-1.11-4.07-4.15-6.68a.945.94-34.877 0 1 .29-1.6q5.25-1.95 10.99-.41a.412.411 79.602 0 0 .44-.64c-5.67-7.69-6.03-19.73 4.92-22.95 15.18-4.46 24.77 10.06 29.14 22.36q.39 1.11 1.52 2.01a.577.573 16.081 0 0 .93-.51c-1.16-10.8 4.34-22.05 13.82-27.03q2.24-1.18 4.09-2.08a1.205 1.201-6.255 0 0 .66-.82l2.9-12.06q.38-.29.72-.38a.469.467-2.462 0 1 .58.53l-1.73 10.77a.852.851 1.843 0 0 .92.98q9.85-.93 17.89 4.76 5.08 11.79-6.13 16.36c-4.59 1.87-6.44.21-10.07-1.68a2.834 2.822-45.522 0 0-2.67.03q-10.81 5.99-16.09 17.29a1.588 1.54-35.582 0 0-.14.77l.27 3.65a1.867 1.771-43.494 0 1-.02.38q-1.54 8.12-8.31 11.62c-5.01 2.59-11.34 2.12-15.35-1.95a.418.417-38.529 0 0-.53-.06l-6.89 4.57a.679.674 77.238 0 0-.3.48c-1.16 10.76-10.14 19.02-20.96 19.92a.877.875-19.172 0 0-.66 1.36l1.52 2.3a1.298 1.235-63.814 0 1 .21.67q.15 5.69-4.31 7.94-1.7.86-3.84-.34-.09-1.56-1.13-1.9-10.73-3.46-15.79-5.44-5.75-2.26-28.11-7.64c-19.62-4.72-38.05-8.09-60.87-10.54q-4.81-.52-23.56-2.26-13.46-1.24-23.62-1.48-27.99-.63-44.9.63-14.43 1.07-27.47 2.23-17.52 1.57-38.4 5.93-4.65.98-17.47 3.7-24.48 5.19-47.92 14.53-2.41.95-2.75 1.96-6.18 1.98-8.57-3.33c-1.18-2.64-1.15-5.51 1.28-7.39a.789.788 31.372 0 0-.34-1.4q-12.83-2.4-17.73-13.93-1.45-3.42-1.15-6.58a.736.73 9.553 0 0-.56-.78q-3.68-.88-6.01-3.69a.727.721-31.641 0 0-.86-.2q-.4.17-.71.59-.46.63-.67.75-8.33 5.12-16.5-.56-6.36-4.42-5.71-13.02a3.797 3.674 36.755 0 0-.27-1.67q-4.72-11.38-17.26-17.2a2.897 2.892 42.165 0 0-2.67.13q-2.31 1.36-3.23 1.63c-9.59 2.79-16.4-6.25-11.54-14.84q.79-1.41-.49-2.87a1.242 1.227 71.216 0 0-.82-.41c-3.46-.28-6.07-.57-8.57-3.35q-4.12-4.61-3-11.04.86-4.93 5.74-7.71 3.01-.34 6.54.04c8.34.88 10.49 8.97 7.58 15.92-.77 1.85-2.59 3.26-4.18 4.84a.246.242 12.457 0 0 .26.4c6.22-2.25 11.9-2.48 18.24-1.33 11.17 4.65 20.02 16.14 18.39 28.61a.401.397-9.009 0 0 .57.41c1.52-.73 2.56-2.25 3.15-3.98 3.72-11.07 12.95-21.95 25.73-20.19 9 1.23 12.06 9.05 9.79 17.1q-.9 3.2-2.69 6.45a.413.412 8.165 0 0 .45.6q5.48-1.18 10.51.88a.841.84 36.691 0 1 .21 1.43q-2.88 2.32-4.01 5.83a1.077 1.075-55.066 0 0 .18 1.02q.64.8 2.74.84a1.219 1.215 7.559 0 1 1.16 1.51q-1.2 4.72.9 9.29c8.26 18.01 48.3 17.87 46.99-7.41a.908.903 1.898 0 0-.8-.85q-4.29-.54-7.54-3.61a1.119 1.112 58.989 0 0-1.07-.27q-1.26.35-3.52.13a.575.573 2.732 0 0-.63.57q-.05 7.34-6.7 11.05c-8.73 4.86-12.73-6.91-13.1-13a1.939 1.929-75.256 0 0-.87-1.5q-6.99-4.55-4.51-13.07.16-.53.45-1.85a1.595 1.549 40.476 0 0-.09-.96c-1.56-3.59-3.14-8.27-1.64-12.35 2.84-7.76 13.24-5.11 17.15-.09a1.288 1.275-16.367 0 0 .89.48q1 .09 2.32-.54a.89.89-10.59 0 0 .48-.7q.15-1.71 1-3.31a1.104 1.1 19.971 0 0-.75-1.6c-3.32-.68-5.4-1.56-7.1-4.53-2.87-5.02-8.08-14.83-2.79-19.17 1.54-1.27 3.86-1.25 5.78-2.39l5.55-2.56 6.42-.2a4.968 4.905 29.421 0 0 2.28-.62q4.09-2.26 6.72-1.6c4.6 1.17 7.4 5.87 7.42 10.48q.04 5.83.49 7.3a2.9 2.851 47.876 0 1-.08 1.92q-1 2.52-3.06 4.86a.848.84 53.402 0 0-.13.91l1.47 3.31a.485.483-32.97 0 0 .76.16q.47-.41 2.77-.62a1.061 1.058-84.967 0 0 .94-.79q2.47-8.98 10.9-10.75c6.18-1.3 9.01 7.68 8.73 12.29a2.54 2.512-71.776 0 0 1.13 2.27c4.75 3.14 7.2 8.69 4.19 13.89q-.31.52-.36.87a1.381 1.321 34.843 0 0 .18.89c3.8 6.49 5.09 16.06-4.69 17.75q-6.56 1.13-10.95-4.8a.866.864-51.449 0 0-1.49.17q-2.26 5.21-6.53 8.81a1.485 1.484 59.947 0 0-.44 1.65c3.88 10.5 13.35 15.95 24.26 12.77 7.9-2.31 14.74-6.83 17.61-14.74q3.68-10.12.58-20.84a1.021 1.014 2.375 0 0-.63-.68q-7.25-2.68-5.83-10.74.8-4.55 5.18-6.2c10.27-3.87 16.77 11.2 6.94 16.06a.85.849 69.203 0 0-.44.98q1.79 6.68 5.63 12.87 10.48 16.9 31.49 15.96c14.6-.65 25.49-10.57 23.33-25.83a2.879 2.86 9.041 0 0-1.6-2.19l-9.6-4.65a.448.443-64.836 0 0-.6.22q-2.89 6.53-9.23 7.74c-9.13 1.74-14.83-3.68-13.41-13.16a2.627 2.62 31.395 0 0-.47-1.93q-3.98-5.45-1.32-11.51c.48-1.09 1.38-1.69 1.93-2.61a1.915 1.89-30.583 0 0 .28-1.06q-.09-4.1.31-5.64c2.24-8.6 9.61-7.95 16.16-5.12q4.04 1.74 6.66 6.18a.591.588-43.711 0 0 1 .02l2.56-3.92a1.2 1.2 32.596 0 0-.37-1.68c-2.43-1.5-5.29-2.18-5.91-6.73-.54-4.02-2.35-13.3 3.15-14.64M890.89 313.95q8.62 5.06 6.13 13.79-2.37 8.35-11.7 8.66c-1.84-1.06-4.36-1.79-5.76-2.96-6.98-5.84-4.37-19.04 5.54-19.57q3.1-.16 5.79.08"></path><path fill="#fea308" fill-rule="evenodd" d="M789.51 421.52q-1.16-.01-1.59 1.38-1.54 5.05-3.26 10.19l-20.4.54a.433.43 68.491 0 0-.31.72q7.07 8.05 15.33 14.13-.47 4.73-3.17 11.89-30.66-9.04-62.29-14.04-3.97-.63-15.45-2.43-33.66-5.28-74.1-5.14-1.03 0-2.06.02-4.27.09-11.29.07-6.92-.01-11.28.27c-15.94 1-32.79 1.95-49.33 4.66q-16.03 2.63-17.73 2.83c-9.94 1.17-17.83 3.4-28.49 5.54-8.95 1.79-20.41 4.96-27.27 7.43q-4.84 1.74-6.57.25l-3.38-11.09q8.23-6.01 15.45-13.45a.85.75-14.872 0 0 .18-.27l.36-.79a.401.399-74.907 0 0-.32-.56q-10.51-1.23-20.69-.84-2.2-5.25-3.73-11-.07-.27-.6-.59.34-1.01 2.75-1.96 23.44-9.34 47.92-14.53 12.82-2.72 17.47-3.7 20.88-4.36 38.4-5.93 13.04-1.16 27.47-2.23 16.91-1.26 44.9-.63 10.16.24 23.62 1.48 18.75 1.74 23.56 2.26c22.82 2.45 41.25 5.82 60.87 10.54q22.36 5.38 28.11 7.64 5.06 1.98 15.79 5.44 1.04.34 1.13 1.9m-140.509-5.25a.63.63-44.341 0 0 0-1.159l-24.814-10.576a.63.63 52.817 0 0-.494 0l-24.804 10.576a.63.63 6.751 0 0 0 1.159l24.814 10.585a.63.63-61.009 0 0 .494-.001zm79.468 9.725a5.47 5.47 0 0 0-4.601-6.218l-30.403-4.544a5.47 5.47 0 0 0-6.218 4.602l-.136.91a5.47 5.47 0 0 0 4.601 6.218l30.403 4.544a5.47 5.47 0 0 0 6.218-4.602zm-167.618-5.883a5.46 5.46 0 0 0-6.183-4.625l-30.584 4.407a5.46 5.46 0 0 0-4.626 6.183l.131.911a5.46 5.46 0 0 0 6.183 4.625l30.584-4.407a5.46 5.46 0 0 0 4.626-6.183z" data-source="https://football-logos.cc"></path><path fill="#097419" fill-rule="evenodd" d="m649.001 416.27-24.804 10.584a.63.63-1.473 0 1-.494.001l-24.814-10.585a.63.63 3.836 0 1 0-1.159l24.804-10.576a.63.63-3.224 0 1 .494 0l24.814 10.576a.63.63-12.385 0 1 0 1.159M728.333 426.905a5.47 5.47 0 0 1-6.218 4.602l-30.403-4.544a5.47 5.47 0 0 1-4.601-6.218l.136-.91a5.47 5.47 0 0 1 6.218-4.602l30.403 4.544a5.47 5.47 0 0 1 4.601 6.218zM560.982 421.023a5.46 5.46 0 0 1-4.626 6.183l-30.584 4.407a5.46 5.46 0 0 1-6.183-4.625l-.131-.911a5.46 5.46 0 0 1 4.626-6.183l30.584-4.407a5.46 5.46 0 0 1 6.183 4.625zM466.87 448.74q-5.43-2.73-10.5-3.6a.846.846 19.205 0 1-.6-1.24l6.08-11.07q10.18-.39 20.69.84a.401.399-74.907 0 1 .32.56l-.36.79a.85.75-14.872 0 1-.18.27q-7.22 7.44-15.45 13.45M784.66 433.09l5.87 10.82a.798.796 67.031 0 1-.46 1.14l-10.79 3.43q-8.26-6.08-15.33-14.13a.433.43 68.491 0 1 .31-.72z"></path><path fill="#fec607" fill-rule="evenodd" d="M776.11 460.37q4.14 1.46 3.72 5.43c-.39 3.79-3.06 5.41-6.41 6.01q-1.06.19-3.72-.63c-4.57-1.42-10.36-3.48-15.45-4.55-6.91-1.46-14.18-3.79-22.17-5.53q-51.9-11.37-105.33-11.39-53.48-.02-103.88 10.48c-17.69 3.69-32.33 7.23-46.05 11.6q-4.8 1.53-8.25-1.52-3.52-3.12-1.52-6.67.55-.96 3.2-3.77 1.73 1.49 6.57-.25c6.86-2.47 18.32-5.64 27.27-7.43 10.66-2.14 18.55-4.37 28.49-5.54q1.7-.2 17.73-2.83c16.54-2.71 33.39-3.66 49.33-4.66q4.36-.28 11.28-.27 7.02.02 11.29-.07 1.03-.02 2.06-.02 40.44-.14 74.1 5.14 11.48 1.8 15.45 2.43 31.63 5 62.29 14.04"></path><path fill="#073080" fill-rule="evenodd" d="M240.7 636.23a.456.451 47.324 0 1 .02-.56l153.99-184.2a1.336 1.328-57.309 0 1 1.58-.35q24.46 11.57 52.09 20.97 12.38 4.21 31.73 9.67 67.39 19.02 137.63 20.36c61.05 1.15 122.29-8.29 179.56-29.25q26.91-9.84 52.81-22.08a1.127 1.124 57.134 0 1 1.34.29l156.45 183.76a.778.773 41.451 0 1 .06.92q-25.34 39.51-41.04 82.39c-7.3 19.93-13.05 41.72-15.17 63.56q-1.76 18.04.61 37.5 2.45 20.07 7.44 38.76c8.31 31.06 20.41 61.49 34.82 90.7a.86.86-29.883 0 1-.3 1.11q-184.35 121.11-368.8 244.2a1.238 1.215-44.89 0 1-1.35.01L252.25 950.67a.867.863-59.541 0 1-.29-1.13q6.47-11.97 9.53-17.76c20.63-38.91 35.27-82.15 37.6-126.03q.38-7.2-.07-12.99c-.37-4.75-.5-11.16-1.26-17.33-6.2-50.27-26.94-98.65-57.06-139.2m54.22 303.11 328.84 215.15a.853.835 43.786 0 0 .94-.01l328.26-217.42a.509.499-29.371 0 0 .18-.62q-19.63-44.16-29.31-90.75-2.54-12.2-4.54-33.55-.91-9.72-.53-18.79.6-14.43 1.1-18.78 2.36-20.48 8.97-43.75c9.06-31.86 22.95-62.87 39.1-91.9a.732.725 39.784 0 0-.08-.83l-125.4-147.3a.694.677 56.995 0 0-.8-.18q-17.13 7.73-34.68 13.88c-82.25 28.82-170.65 36.3-257.23 24.82q-75.73-10.04-144.64-38.67a.719.712-58.42 0 0-.82.2L281.54 637.65a.937.923-41.766 0 0-.07 1.1q34.58 54.01 46.26 117.07 8.17 44.09-.63 88.92-9.34 47.58-32.43 93.69a.701.699-60.425 0 0 .25.91"></path><path fill="#fff" fill-rule="evenodd" d="M294.67 938.43q23.09-46.11 32.43-93.69 8.8-44.83.63-88.92-11.68-63.06-46.26-117.07a.937.923-41.766 0 1 .07-1.1l122.74-146.81a.719.712-58.42 0 1 .82-.2q68.91 28.63 144.64 38.67c86.58 11.48 174.98 4 257.23-24.82q17.55-6.15 34.68-13.88a.694.677 56.995 0 1 .8.18l125.4 147.3a.732.725 39.784 0 1 .08.83c-16.15 29.03-30.04 60.04-39.1 91.9q-6.61 23.27-8.97 43.75-.5 4.35-1.1 18.78-.38 9.07.53 18.79 2 21.35 4.54 33.55 9.68 46.59 29.31 90.75a.509.499-29.371 0 1-.18.62L624.7 1154.48a.853.835 43.786 0 1-.94.01L294.92 939.34a.701.699-60.425 0 1-.25-.91m605.028-133.264A273.19 252.1-.2 0 0 625.63 554.022a273.19 252.1-.2 0 0-272.308 253.052 273.19 252.1-.2 0 0 274.068 251.145 273.19 252.1-.2 0 0 272.308-253.053"></path><path fill="#fec607" fill-rule="evenodd" d="M899.698 805.166a273.19 252.1-.2 0 1-272.308 253.053 273.19 252.1-.2 0 1-274.068-251.145A273.19 252.1-.2 0 1 625.63 554.022a273.19 252.1-.2 0 1 274.068 251.144m-270.28 218.601c58.61-.779 113.266-20.228 158.353-57.479 28.489-23.538 51.449-54.128 64.489-88.628q6.75-17.88 9.69-32.61c7.73-38.79 3.82-78.21-11.14-114.78-18.64-45.59-53.4-82.98-96.303-107.784-39.956-23.094-84.698-34.756-130.875-34.142s-90.594 13.46-129.922 37.608c-42.229 25.935-75.983 64.236-93.405 110.305-13.983 36.955-16.844 76.465-8.086 115.036q3.331 14.646 10.553 32.34c13.953 34.142 37.717 64.111 66.822 86.883 46.061 36.04 101.214 54.03 159.824 53.251"></path><path fill="#fff" fill-rule="evenodd" d="M623.632 588.344c46.177-.614 90.919 11.048 130.875 34.142C797.41 647.29 832.17 684.68 850.81 730.27c14.96 36.57 18.87 75.99 11.14 114.78q-2.94 14.73-9.69 32.61c-13.04 34.5-36 65.09-64.489 88.628-45.087 37.251-99.743 56.7-158.353 57.479s-113.763-17.211-159.824-53.251c-29.105-22.772-52.869-52.741-66.822-86.883q-7.222-17.694-10.553-32.34c-8.758-38.571-5.897-78.081 8.086-115.036 17.422-46.069 51.176-84.37 93.405-110.305 39.328-24.148 83.745-36.995 129.922-37.608M637.33 811.85q34.05.03 43.92-.01c11.64-.05 20.35 1.37 28.56 7.12 6.4 4.49 11.36 12.63 13.43 20.08 1.4 5.02 2.01 12.1 2.02 18.02q.04 14.09.07 35.41a.688.688-9.42 0 0 .91.65q19.71-6.61 38.79-16.2a.658.638 78.176 0 0 .36-.57q.3-13.43-.18-27.82c-.82-24.58-12.69-46.74-35.02-57.61a.204.199-52.604 0 1-.04-.33q17.8-16.21 28.29-37.17 15.73-31.45 8.92-65.26-4.09-20.28-16.5-35.54c-12.23-15.04-30.97-24.46-49.87-28.33q-14.49-2.97-25.74-2.97-51.93.01-76.4-.08a.71.71 0 0 0-.71.71v154.54a.46.46 45 0 1-.46.46h-71.12a.6.59 90 0 1-.59-.6V631a.534.528-13.277 0 0-.77-.47q-16.93 8.55-34.81 20.1a1.67 1.658 73.711 0 0-.76 1.4v211.18a3.334 3.326-67.251 0 0 .95 2.33c4.74 4.82 9.38 9.72 15.37 14.17q9.56 7.11 19.06 12.25a.626.624 14.055 0 0 .92-.55v-79.07a.48.48-45 0 1 .48-.48h71.49a.24.24 45 0 1 .24.24v148.85a.57.57 45 0 0 .57.57h37.52a.48.47 0 0 0 .48-.47V812.48a.63.62-90 0 1 .62-.63m-47.61-155.23q-20.01 1.79-39.36 6.56c-4.42 1.09-10.32 3.16-15.41 4.28a.68.676-6.42 0 0-.53.66v37.78a.447.443-10.834 0 0 .61.41q25.76-10.52 54.38-13.85a.669.664-3.407 0 0 .59-.66v-34.93a.253.252-3.075 0 0-.28-.25m187.67 34.35a.573.569-81.681 0 0-.8.6q2.7 20.05-.84 38.25a.754.737-70.12 0 0 .36.79l25.32 14.62a.771.77 33.23 0 0 1.01-.21l20.05-27.56a.722.711-55.003 0 0-.17-1.01q-21.8-14.92-44.93-25.48m-296.23 5.4a.514.514-17.576 0 0-.81-.42q-3.6 2.53-6.95 5.45-33.23 28.91-47.43 69.88c-4.46 12.86-6.92 26.95-6.03 40.03 1.9 28.03 14.97 56.25 32.63 78.47 17.27 21.73 41.57 38.96 67.64 49.5q33.31 13.46 69.16 16.18a.591.584-87.76 0 0 .63-.59v-35.06a.765.763 2.459 0 0-.7-.76c-26.35-2.15-53.25-10.13-75.97-23.91q-30.37-18.43-46.91-49.54-7.81-14.68-10.4-32.73c-1.89-13.21 1.82-28.41 7.46-40.12q7.33-15.23 17.36-28.35a1.61 1.552 64.495 0 0 .32-.96zm164.4 259.15q1.53.06 4.74-.22 46.8-4.12 89.16-18.9c29.38-10.25 57.18-23.34 82.89-40.51a1.231 1.227 55.134 0 0 .31-1.75l-20.68-28.15a.595.586 54.449 0 0-.8-.14q-14.73 9.95-30.8 18.02-58.92 29.6-124.55 35.78a.726.723-2.608 0 0-.66.72v34.75a.4.4.735 0 0 .39.4M490.15 933.4a.359.358-74.737 0 0-.54.31v33.18a.84.83-90 0 0 .83.84h34.94a.57.57 45 0 0 .57-.57v-15.77a1.36 1.36-79.724 0 0-.88-1.27q-17.37-6.54-34.92-16.72m235.12 34.09a.33.33 45 0 0 .33.33h39.5a.33.33 5.854 0 0 .33-.33v-31.411a.33.33-76.018 0 0-.442-.31l-39.5 14.212a.33.33 72.877 0 0-.218.311z"></path><path fill="#073080" fill-rule="evenodd" d="M636.71 812.48v148.57a.48.47 0 0 1-.48.47h-37.52a.57.57-45 0 1-.57-.57V812.1a.24.24-45 0 0-.24-.24h-71.49a.48.48 45 0 0-.48.48v79.07a.626.624 14.055 0 1-.92.55q-9.5-5.14-19.06-12.25c-5.99-4.45-10.63-9.35-15.37-14.17a3.334 3.326-67.251 0 1-.95-2.33V652.03a1.67 1.658 73.711 0 1 .76-1.4q17.88-11.55 34.81-20.1a.534.528-13.277 0 1 .77.47v145.35a.6.59 90 0 0 .59.6h71.12a.46.46 0 0 0 .46-.46V621.95a.71.71 45 0 1 .71-.71q24.47.09 76.4.08 11.25 0 25.74 2.97c18.9 3.87 37.64 13.29 49.87 28.33q12.41 15.26 16.5 35.54 6.81 33.81-8.92 65.26-10.49 20.96-28.29 37.17a.204.199-52.604 0 0 .04.33c22.33 10.87 34.2 33.03 35.02 57.61q.48 14.39.18 27.82a.658.638 78.176 0 1-.36.57q-19.08 9.59-38.79 16.2a.688.688-9.42 0 1-.91-.65q-.03-21.32-.07-35.41c-.01-5.92-.62-13-2.02-18.02-2.07-7.45-7.03-15.59-13.43-20.08-8.21-5.75-16.92-7.17-28.56-7.12q-9.87.04-43.92.01a.63.62-90 0 0-.62.63m55.75-156.08q.62.77 1.06 1.12 17.28 13.93 26.87 30.64 5.55 9.66 6.19 20.85a.55.548 11.833 0 1-.8.52q-.99-.51-2.72-1.08-41.84-13.96-85.85-16.87a.442.441 1.83 0 0-.47.44v84.48a.51.51-.551 0 0 .52.51q23.73-.17 32.66-.06 17.96.21 23.1-1.3 14.12-4.13 22.92-13.77 15.04-16.46 18.49-41.88c2.31-17.02-1.55-33.02-13.22-45.69q-12-13.02-28.46-18.34a.272.268 79.428 0 0-.29.43"></path><path fill="#fff" fill-rule="evenodd" d="M692.46 656.4a.272.268 79.428 0 1 .29-.43q16.46 5.32 28.46 18.34c11.67 12.67 15.53 28.67 13.22 45.69q-3.45 25.42-18.49 41.88-8.8 9.64-22.92 13.77-5.14 1.51-23.1 1.3-8.93-.11-32.66.06a.51.51-.551 0 1-.52-.51v-84.48a.442.441 1.83 0 1 .47-.44q44.01 2.91 85.85 16.87 1.73.57 2.72 1.08a.55.548 11.833 0 0 .8-.52q-.64-11.19-6.19-20.85-9.59-16.71-26.87-30.64-.44-.35-1.06-1.12"></path><path fill="#073080" fill-rule="evenodd" d="M589.72 656.62a.253.252-3.075 0 1 .28.25v34.93a.669.664-3.407 0 1-.59.66q-28.62 3.33-54.38 13.85a.447.443-10.834 0 1-.61-.41v-37.78a.68.676-6.42 0 1 .53-.66c5.09-1.12 10.99-3.19 15.41-4.28q19.35-4.77 39.36-6.56M777.39 690.97q23.13 10.56 44.93 25.48a.722.711-55.003 0 1 .17 1.01l-20.05 27.56a.771.77 33.23 0 1-1.01.21l-25.32-14.62a.754.737-70.12 0 1-.36-.79q3.54-18.2.84-38.25a.573.569-81.681 0 1 .8-.6M481.16 696.37v47.07a1.61 1.552 64.495 0 1-.32.96q-10.03 13.12-17.36 28.35c-5.64 11.71-9.35 26.91-7.46 40.12q2.59 18.05 10.4 32.73 16.54 31.11 46.91 49.54c22.72 13.78 49.62 21.76 75.97 23.91a.765.763 2.459 0 1 .7.76v35.06a.591.584-87.76 0 1-.63.59q-35.85-2.72-69.16-16.18c-26.07-10.54-50.37-27.77-67.64-49.5-17.66-22.22-30.73-50.44-32.63-78.47-.89-13.08 1.57-27.17 6.03-40.03q14.2-40.97 47.43-69.88 3.35-2.92 6.95-5.45a.514.514-17.576 0 1 .81.42M645.56 955.52a.4.4.735 0 1-.39-.4v-34.75a.726.723-2.608 0 1 .66-.72q65.63-6.18 124.55-35.78 16.07-8.07 30.8-18.02a.595.586 54.449 0 1 .8.14l20.68 28.15a1.231 1.227 55.134 0 1-.31 1.75c-25.71 17.17-53.51 30.26-82.89 40.51q-42.36 14.78-89.16 18.9-3.21.28-4.74.22M490.15 933.4q17.55 10.18 34.92 16.72a1.36 1.36-79.724 0 1 .88 1.27v15.77a.57.57 45 0 1-.57.57h-34.94a.84.83-90 0 1-.83-.84v-33.18a.359.358-74.737 0 1 .54-.31M725.27 967.49v-17.198a.33.33-67.078 0 1 .218-.311l39.5-14.212a.33.33-60.848 0 1 .442.31v31.411a.33.33 29.823 0 1-.33.33h-39.5a.33.33-45 0 1-.33-.33" data-source="https://football-logos.cc"></path><!-- source: https://football-logos.cc --></svg>