<svg xmlns="http://www.w3.org/2000/svg" xml:space="preserve" id="Layer_1" x="0" y="0" version="1.1" viewBox="36.9 34.9 162.6 162.6" width="139" height="181" preserveAspectRatio="xMidYMid meet"><metadata xmlns:fl="https://football-logos.cc/japan/fc-osaka">dl1_e2e398c363053e0be295e9529af6b9df066ec8088aba7550739001f13fbdd6ab</metadata><!-- Source: https://football-logos.cc --><style data-source="https://football-logos.cc">.st0{fill:#231f20}.st1{fill:#fff}</style><g id="_ーク等" data-source="https://football-logos.cc"><path d="M36.9 116.2c0 44.8 36.5 81.3 81.3 81.3s81.3-36.5 81.3-81.3-36.5-81.3-81.3-81.3-81.3 36.5-81.3 81.3" class="st0"></path><path d="M38.6 116.2c0 43.9 35.7 79.6 79.6 79.6s79.6-35.7 79.6-79.6-35.7-79.6-79.6-79.6-79.6 35.7-79.6 79.6" class="st1"></path><path d="M194.3 116.2c0 42-34.1 76.1-76.1 76.1s-76.1-34.1-76.1-76.1 34.1-76.1 76.1-76.1 76.1 34.1 76.1 76.1" style="fill:#72c8f1"></path><path d="M179.3 116.2c0 33.7-27.3 61-61 61s-61-27.3-61-61 27.3-61 61-61 61 27.3 61 61" class="st0"></path><path d="M118.2 174.5c-32.2 0-58.4-26.2-58.4-58.4S86 57.7 118.2 57.7s58.4 26.2 58.4 58.4-26.1 58.4-58.4 58.4m0-115.9c-31.8 0-57.6 25.8-57.6 57.5s25.8 57.6 57.6 57.6 57.6-25.8 57.6-57.6-25.8-57.5-57.6-57.5m0 110.8c-29.4 0-53.3-23.9-53.3-53.3s23.9-53.3 53.3-53.3 53.3 23.9 53.3 53.3-23.9 53.3-53.3 53.3m0-105.7c-28.9 0-52.4 23.5-52.4 52.4s23.5 52.4 52.4 52.4 52.4-23.5 52.4-52.4-23.4-52.4-52.4-52.4M81.1 168.6l3.9 2.1-1 1.8-1.6-.9-.9 1.7 1.4.7-.9 1.7-1.4-.8-2.1 3.7-2.2-1.3zM88.2 179.2c-.5.9-.9 1.5-1.1 1.8s-.6.6-.9.8c-.4.2-.8.3-1.3.2-.5 0-.9-.2-1.4-.5s-.9-.6-1.1-.9c-.3-.4-.5-.7-.5-1.2-.1-.4 0-.8.1-1.2.2-.4.5-1 1-1.9l.8-1.5c.5-.9.8-1.5 1.1-1.8.2-.3.6-.6.9-.8.4-.2.8-.2 1.3-.2s.9.2 1.4.5.8.6 1.1.9c.3.4.5.8.5 1.2s0 .8-.1 1.2c-.2.4-.5 1-1 1.9zm-.7-4.1c.2-.4.3-.7.4-.8 0-.1 0-.2-.2-.3q-.15-.15-.3 0c-.1 0-.3.3-.5.8l-2.2 4.1c-.3.5-.4.9-.5 1 0 .1 0 .3.2.3.2.1.3.1.4 0q.15-.15.6-.9zM94.6 182.5c-.4.9-.7 1.6-.9 1.9q-.3.6-.9.9c-.6.3-.8.3-1.2.3-.5 0-1-.1-1.5-.4q-.75-.3-1.2-.9c-.3-.3-.5-.7-.6-1.1s-.1-.8.1-1.2c.1-.4.4-1.1.8-2l.7-1.6c.4-.9.7-1.5.9-1.9s.5-.6.9-.9q.6-.3 1.2-.3c.5 0 1 .1 1.5.4.5.2.9.5 1.2.8s.5.7.6 1.1q.15.6 0 1.2c-.1.4-.4 1.1-.8 2zm-1-4.1c.2-.4.3-.7.3-.8s-.1-.2-.2-.3q-.15-.15-.3 0c-.1.1-.3.3-.5.8l-1.9 4.2c-.2.5-.4.9-.4 1s.1.3.2.3c.2.1.3 0 .4-.1s.3-.4.5-1zM103.2 178.6l-.6 1.9-1.5-.4-2.2 7.6-2.5-.7 2.2-7.7-1.4-.4.5-1.9zM105.7 179.1l2.6.4c.8.1 1.4.3 1.8.5s.7.5.9 1c.2.4.2 1.1 0 1.9-.1.6-.3 1-.5 1.2q-.3.3-1.2.3c.6.2.9.5 1.1.9q.3.45 0 1.5l-.2.9c-.1.7-.3 1.1-.5 1.5-.2.3-.5.5-.8.5-.4 0-1 0-2.1-.2l-3-.5zm2.3 2.2-.4 2.2h.3c.2 0 .4 0 .5-.1s.2-.5.3-1c0-.3.1-.5 0-.7 0-.1-.1-.2-.2-.3-.1 0-.2-.1-.5-.1m-.7 3.7-.5 2.7h.7c.1-.1.2-.3.3-.7l.2-.9c.1-.4.1-.7 0-.8-.1-.2-.3-.2-.7-.3M116.7 180.1l1.1 10-2.7-.1-.1-1.8h-.9l-.2 1.8-2.7-.1 1.7-9.9zm-1.6 6.4c-.1-1.1-.2-2.5-.2-4.2-.3 1.9-.6 3.3-.7 4.2zM126.5 179.7l.5 8 1.6-.1.1 2-4.1.2-.7-9.9zM121.6 180l.3 8h1.5l.1 2-4.2.1-.2-10zM137.4 182.3l-2.6.4-.3-1.7c-.1-.5-.1-.8-.2-.9s-.2-.2-.4-.1c-.2 0-.3.1-.4.3v1l.7 4.6c.1.5.1.8.2.9s.2.2.4.2q.3 0 .3-.3c0-.2 0-.5-.1-1l-.2-1.2 2.6-.4.1.4c.2 1 .2 1.8.1 2.2-.1.5-.3.9-.8 1.3-.4.4-1 .6-1.8.8-.7.1-1.4.1-1.9-.1s-.9-.5-1.1-1q-.3-.75-.6-2.1l-.4-2.9c-.1-.7-.2-1.3-.2-1.6 0-.4.1-.7.3-1.1q.3-.6.9-.9c.4-.2.9-.4 1.4-.5.8-.1 1.4 0 1.9.2s.9.5 1.1.9.4 1.1.5 2zM140.9 176.5l2.4 7.7 1.5-.5.6 1.9-3.9 1.3-3.1-9.5zM149.3 173l2.7 6.1q.45 1.05.6 1.5c.1.3.1.6 0 1s-.3.7-.6 1.1c-.3.3-.7.6-1.2.8-.6.2-1.1.4-1.6.4s-.9-.1-1.2-.3-.6-.4-.8-.8c-.2-.3-.5-1-.9-2l-2.4-5.4 2.4-1 3 6.9c.2.4.3.6.4.7s.2.1.3.1c.2-.1.2-.2.2-.3q0-.15-.3-.9l-2.9-6.8zM151.4 171l2.3-1.3c.7-.4 1.3-.6 1.7-.7s.9 0 1.3.2.8.7 1.3 1.5c.3.5.4.9.4 1.2s-.3.6-.7 1c.6-.2 1.1-.2 1.4 0s.7.5 1 1.1l.4.8c.3.6.5 1.1.5 1.4 0 .4-.1.7-.3 1s-.8.7-1.7 1.2l-2.6 1.5zm3.1.2 1.1 2c.1-.1.2-.1.2-.1.2-.1.3-.3.3-.4 0-.2-.1-.5-.4-1-.2-.3-.3-.4-.4-.5s-.2-.1-.3-.1c-.2-.1-.3 0-.5.1m1.8 3.3 1.4 2.4c.3-.2.5-.4.5-.5s0-.4-.2-.7l-.5-.8c-.2-.4-.4-.6-.5-.6-.1-.1-.4 0-.7.2M76.5 171.3s-6.1 2-6.4-1.4c0 0-.4-2.4 3.2-1.4zM73.4 168.4l3.2 2.8s.4-7.3-3.3-7.2c0-.1-1.5.4.1 4.4M71.7 167.3s-6.1 2-6.4-1.3c0 0-.4-2.4 3.2-1.4zM68.7 164.3l3.2 2.8s.4-7.3-3.3-7.2c0 0-1.5.5.1 4.4M66.7 163s-6.3 1.3-6.2-2.1c0 0-.2-2.4 3.3-1zM64 159.7l2.9 3.1s1.2-7.2-2.5-7.5c0 0-1.5.3-.4 4.4M62.6 158.4s-6.4.5-5.9-2.8c0 0 .2-2.4 3.4-.6z" class="st1"></path><path d="m60.3 154.8 2.5 3.5s2.1-7-1.5-7.8c0-.1-1.6.1-1 4.3M59 153.2s-6.4.1-5.7-3.1c0 0 .3-2.4 3.4-.4zM57 149.4l2.3 3.6s2.5-6.8-1.1-7.8c0 0-1.6 0-1.2 4.2M55.8 147.5s-6.4-.7-5.2-3.9c0 0 .6-2.4 3.5.1zM54.3 143.6l1.8 3.9s3.4-6.4 0-7.9c-.1-.1-1.7-.3-1.8 4M53.1 141.5s-6.3-1.2-4.9-4.3c0 0 .8-2.3 3.4.4zM51.9 137.5l1.5 4s3.9-6.2.6-7.9c0-.1-1.6-.3-2.1 3.9M51 135.2s-5.9-2.4-4-5.1c0 0 1.2-2.1 3.3 1zM50.6 130.9l.7 4.2s5-5.3 2.1-7.7c-.1.1-1.6-.5-2.8 3.5M49.7 128.5s-5.2-3.1-3-5.4c0 0 1.4-1.8 3 1.4zM50 124.6l.1 4s5.4-4.3 3-6.9c-.1 0-1.4-.7-3.1 2.9M49.4 122s-4.8-2.8-2.8-4.9c0 0 1.3-1.7 2.7 1.3zM49.7 118.4v3.7s5-4 2.8-6.3c0-.1-1.2-.8-2.8 2.6M49.2 115.5s-4.6-3.3-2.3-5.2c0 0 1.5-1.5 2.6 1.5zM49.7 111.9l-.3 3.7s5.3-3.5 3.4-6.1c0 0-1.1-.8-3.1 2.4M49.7 109.7s-4-3.6-1.7-5.2c0 0 1.6-1.3 2.3 1.7zM50.6 106.2l-.6 3.5s5.4-2.7 3.8-5.4c0 0-1-.9-3.2 1.9M50.7 104s-3.7-3.3-1.6-4.8c0 0 1.4-1.2 2.1 1.6zM51.5 100.9l-.6 3.2s5-2.5 3.5-5c0 0-.9-.8-2.9 1.8M51.8 98.6s-3-4-.6-5c0 0 1.7-.9 1.8 2zM53.2 95.6 52 98.7s5.4-1.5 4.5-4.2c0 0-.8-1-3.3 1.1M53.3 93.7s-2.6-4.2-.1-5c0 0 1.7-.8 1.6 2.1zM55 90.8l-1.5 2.9s5.6-1 4.8-3.8c0 .1-.7-1-3.3.9M55.3 89.4s-2-3.2-.1-3.8c0 0 1.3-.6 1.2 1.6zM56.7 87.3l-1.1 2.2s4.2-.7 3.6-2.9c0 0-.5-.8-2.5.7M57.6 85.3s-1.7-2.8-.1-3.3c0 0 1.1-.5 1.1 1.4zM58.8 83.5l-1 1.9s3.7-.7 3.2-2.5c0 0-.5-.7-2.2.6M162.1 170.1s6.1 1.8 6.3-1.5c0 0 .4-2.4-3.2-1.3zM165.1 167l-3.2 2.8s-.6-7.2 3.1-7.3c.1.1 1.6.6.1 4.5M166.7 165.9s6.1 1.8 6.3-1.5c0 0 .4-2.4-3.2-1.3zM169.6 162.9l-3.2 2.8s-.6-7.3 3.1-7.3c.1 0 1.6.5.1 4.5M171.6 161.5s6.3 1.1 6.1-2.2c0 0 .1-2.4-3.3-.9zM174.2 158.2l-2.8 3.2s-1.4-7.1 2.3-7.6c0 0 1.6.2.5 4.4M175.6 156.8s6.4.3 5.8-3c0 0-.2-2.4-3.4-.5z" class="st1"></path><path d="m177.8 153.1-2.4 3.5s-2.3-6.9 1.3-7.8c0 0 1.6.1 1.1 4.3M179 151.5s6.4 0 5.6-3.3c0 0-.4-2.4-3.5-.3zM181 147.7l-2.2 3.6s-2.7-6.8.9-7.9c0 0 1.6 0 1.3 4.3M182.1 145.7s6.3-.9 5.1-4c0 0-.7-2.4-3.5.2zM183.6 141.7l-1.7 3.9s-3.6-6.4-.2-7.9c0 0 1.6-.2 1.9 4M184.6 139.7s6.3-1.4 4.8-4.4c0 0-.9-2.3-3.4.4zM185.7 135.6l-1.4 4s-4-6.1-.8-7.9c.1 0 1.6-.3 2.2 3.9M186.6 133.3s5.9-2.5 3.9-5.2c0 0-1.3-2.1-3.3 1.1zM186.9 129l-.6 4.2s-5.1-5.2-2.3-7.6c.1 0 1.5-.6 2.9 3.4M187.7 126.6s5.1-3.2 2.9-5.4c0 0-1.5-1.8-2.9 1.5zM187.4 122.6v4s-5.5-4.1-3.2-6.8c0 .1 1.3-.7 3.2 2.8M187.8 120.1s4.8-3 2.7-5c0 0-1.4-1.6-2.7 1.4zM187.5 116.4v3.7s-5.1-3.8-3-6.3c.1.1 1.3-.7 3 2.6M187.9 113.6s4.5-3.4 2.2-5.3c0 0-1.5-1.5-2.6 1.6zM187.2 109.9l.4 3.7s-5.4-3.3-3.5-6c0 .1 1.1-.8 3.1 2.3M187.2 107.7s3.9-3.7 1.6-5.2c0 0-1.6-1.3-2.3 1.8zM186.2 104.3l.7 3.5s-5.5-2.6-3.9-5.3c0 0 1-.9 3.2 1.8M186.1 102.1s3.6-3.4 1.4-4.8c0 0-1.5-1.2-2.1 1.7zM185.2 99l.7 3.2s-5.1-2.4-3.7-4.9c0 0 .9-.9 3 1.7M184.8 96.7s2.8-4.1.4-5c0 0-1.7-.9-1.7 2zM183.3 93.8l1.3 3s-5.5-1.3-4.6-4.1c0 0 .8-1 3.3 1.1M183.2 91.8s2.5-4.3 0-5c0 0-1.7-.7-1.6 2.2zM181.4 89l1.6 2.9s-5.6-.9-4.9-3.7c0 .1.6-1 3.3.8M181 87.6s1.9-3.2 0-3.8c0 0-1.3-.5-1.2 1.6zM179.7 85.5l1.2 2.2s-4.2-.6-3.7-2.8c-.1 0 .4-.8 2.5.6M178.7 83.6s1.6-2.9 0-3.3c0 0-1.2-.5-1 1.5zM177.5 81.8l1.1 1.9s-3.7-.6-3.3-2.4c0 0 .4-.7 2.2.5M61.7 72.8l-1.9 2.1-.6-.6c-.3-.3-.5-.4-.6-.4s-.2 0-.4.2-.2.3-.1.4c0 .2.2.4.4.6.3.3.5.4.8.5.2 0 .6 0 1.1-.2 1.5-.5 2.6-.7 3.2-.6s1.3.5 2.2 1.3c.6.6 1 1 1.2 1.4q.3.6 0 1.5c-.2.6-.5 1.2-1 1.7-.5.6-1.1 1-1.7 1.2s-1.2.2-1.6.1c-.5-.2-1-.6-1.7-1.1l-.6-.5 1.9-2.1 1.1.9c.3.3.6.4.7.5.2 0 .3 0 .4-.2.1-.1.2-.3.1-.5 0-.2-.2-.4-.4-.6-.5-.5-.9-.7-1.2-.7s-.9.1-1.7.4-1.5.4-1.8.4-.7 0-1.1-.2-.8-.4-1.3-.8c-.7-.6-1.1-1.1-1.2-1.6q-.3-.6 0-1.5c.2-.5.5-1.1 1-1.6.5-.6 1.1-1 1.6-1.2.6-.2 1-.3 1.5-.2.4.1 1 .5 1.6 1.1zM60.136 68.409l1.984-2.25 8.777 7.735-1.984 2.25zM69.4 59.4l7.9 8.6-2 1.8-4.8-2.8 3.6 3.9-1.8 1.7-7.9-8.6 1.9-1.7 4.8 2.7-3.6-3.8zM80.2 58l-2.4 1.8-1.2-1.6c-.4-.5-.6-.7-.7-.8s-.3 0-.5.1c-.2.2-.3.3-.2.5 0 .2.3.5.6 1l3.3 4.3c.3.4.6.7.8.8s.3.1.5-.1c.2-.1.2-.3.2-.5s-.3-.5-.7-1l-.9-1.2 2.4-1.8.3.4c.7 1 1.2 1.7 1.4 2.2s.1 1.1-.1 1.7c-.2.7-.7 1.2-1.4 1.8s-1.4.9-2 1-1.2 0-1.7-.4c-.5-.3-1.1-1-1.8-1.9L74 61.6c-.5-.7-.9-1.2-1.1-1.6s-.3-.8-.3-1.3.1-1 .4-1.5.7-.9 1.2-1.3q1.05-.9 2.1-.9c.7-.1 1.2 0 1.7.3s1 .9 1.7 1.7zM80.3 52.1l4.5-2.2 1 2.1-1.8.9 1 1.9 1.7-.8 1 2-1.7.8 1.1 2.3 2-.9 1 2.1-4.7 2.3zM157.5 52.9l-5.7 10.2-2.5-1.4 3-5.5c.4-.8.7-1.3.7-1.5s0-.4-.1-.5c-.1-.2-.5-.4-1.1-.8l-.3-.1.7-1.2c1.4.4 2.6.4 3.7-.1zM154.8 61.4l2.3 1.7c-.3.4-.5.7-.6.8s-.1.2-.1.4.1.3.3.4c.1.1.2.1.4.1.1 0 .2-.1.3-.2s.3-.3.6-.7l1.1-1.5c-.3.2-.6.2-1 .2-.3 0-.7-.2-1-.5q-.6-.45-.9-1.2c-.2-.5-.2-.9 0-1.3s.4-.9.9-1.4l.6-.7c.5-.7.9-1.1 1.2-1.4s.6-.5 1.1-.6c.4-.1.9-.1 1.4 0s1 .4 1.5.8c.6.5 1.1.9 1.3 1.4.3.5.4 1 .4 1.5s-.2.9-.4 1.3q-.3.6-1.5 2.1l-1 1.3c-.8 1.1-1.4 1.9-1.7 2.2s-.7.6-1.2.8q-.75.3-1.5 0c-.5-.1-1.1-.4-1.6-.8-.6-.5-1.1-1-1.4-1.5s-.3-1-.2-1.6c0-.4.2-1 .7-1.6m4.5-1.1c-.3.4-.4.7-.4.8 0 .2.1.3.2.4.2.1.3.2.5.1q.3-.15.6-.6l1.3-1.7c.3-.4.5-.7.5-.9s0-.3-.2-.4c-.1-.1-.2-.1-.4-.1s-.4.2-.7.7zM161.5 67l2.1 2c-.4.4-.6.7-.7.7-.1.1-.1.2-.1.4s.1.3.2.4.2.2.4.2c.1 0 .3 0 .4-.1l.6-.6 1.3-1.3c-.3.1-.6.1-1 .1q-.45-.15-.9-.6c-.4-.4-.6-.8-.7-1.3s0-.9.2-1.3.5-.8 1-1.3l.6-.7c.6-.6 1-1 1.3-1.2s.7-.4 1.1-.4c.4-.1.9 0 1.3.2.5.2.9.5 1.4.9.6.5 1 1.1 1.2 1.6s.3 1 .2 1.5q-.15.75-.6 1.2c-.3.4-.9 1-1.7 1.9l-1.1 1.2c-1 1-1.6 1.7-2 2s-.8.5-1.3.6-1 0-1.5-.1c-.5-.2-1-.5-1.5-1-.6-.6-1-1.1-1.2-1.7s-.2-1.1 0-1.6c.2-.7.5-1.2 1-1.7m4.6-.7c-.3.4-.5.6-.5.8s.1.3.2.4.3.2.5.2.4-.2.7-.5l1.5-1.5c.3-.4.6-.6.6-.8s0-.3-.2-.5c-.1-.1-.2-.1-.4-.1s-.5.2-.8.6zM176.4 74.8l-1.9-2.2.7-.7c.1-.1.1-.2.2-.4 0-.2-.1-.3-.2-.4s-.2-.2-.3-.2-.3 0-.4.1-.3.3-.7.6l-1.4 1.2c.3-.1.7-.1 1 0q.45.15.9.6c.4.4.6.8.6 1.3.1.5 0 .9-.3 1.3-.2.4-.6.8-1.1 1.2l-.7.6c-.6.5-1.1.9-1.4 1.1s-.7.3-1.2.4c-.4 0-.9-.1-1.3-.3s-.9-.6-1.3-1c-.5-.6-.9-1.1-1-1.7s-.2-1-.1-1.5q.15-.75.6-1.2c.3-.3.9-.9 1.9-1.8l1.2-1.1q1.5-1.35 2.1-1.8c.4-.3.8-.5 1.3-.5q.75-.15 1.5.3c.5.2 1 .6 1.4 1.1.6.6.9 1.2 1.1 1.8s.1 1.1-.1 1.6c-.2.6-.6 1.1-1.1 1.6m-4.7.2c.3-.3.5-.5.6-.7 0-.2 0-.3-.1-.5-.1-.1-.3-.2-.5-.2s-.4.2-.7.5l-1.6 1.4c-.4.3-.6.6-.7.8s0 .3.1.5c.1.1.2.2.4.2s.5-.1.9-.5zM90.8 51.8l-1.1 1.6-.6-1.8-1.8-.5 1.5-1.2-.1-1.9 1.6 1.1 1.8-.7-.5 1.9 1.1 1.5zM99.8 48.4l-1.4 1.3-.2-1.9-1.7-.9 1.7-.8.4-1.9 1.3 1.4 1.9-.3-1 1.7.9 1.7zM105.6 54.4l-1.6 1.2.1-2-1.6-1.1 1.9-.5.6-1.9 1.1 1.6h1.9l-1.2 1.5.6 1.9zM115.2 53.4l-1.7 1 .2-1.9-1.4-1.3 1.9-.4.7-1.8 1 1.7 1.9.2-1.3 1.4.4 1.9zM125 53.5l-1.8.7.4-1.8-1.2-1.5 1.9-.1 1-1.7.7 1.8 1.9.4-1.5 1.3.2 1.9zM134.5 54.7l-1.8.6.6-1.8-1.1-1.5h2l1.1-1.5.5 1.8 1.9.6-1.6 1.1v1.9zM109.1 46.7l-1.6 1 .1-1.9-1.5-1.1 1.9-.5.6-1.9 1 1.7h2l-1.2 1.5.5 1.8zM118.9 46.1l-1.7.9.3-1.9-1.4-1.3 1.9-.3.9-1.7.8 1.7 1.9.3-1.3 1.3.3 1.9zM128.7 46.6l-1.7.8.5-1.9-1.3-1.5h2l1-1.7.6 1.8 1.9.5-1.5 1.2.2 1.9zM138 48.5l-1.9.4.8-1.7-1-1.7 1.9.2 1.3-1.4.3 1.8 1.8.8-1.7 1-.1 1.9zM147.2 52h-2l1.2-1.6-.6-1.8 1.8.7 1.5-1.2V50l1.6 1.1-1.8.6-.6 1.9zM91.1 83.4h3.8l1.3-4.6h-3.9l1.2-4.5h4.3l1.3-4.7H88.6l-6.4 23.8h6.2zM96.3 84.9c-.6 2.3-.9 4.1-.8 5.2.1 1.2.6 2.1 1.6 2.7 1 .7 2.4 1 4.2 1s3.3-.4 4.7-1.2q2.1-1.2 3-2.7c.9-1.5 1.3-2.8 1.9-5.2l.3-.9H105l-.8 3c-.4 1.3-.6 2.1-.9 2.5-.2.4-.6.5-1.1.5s-.7-.2-.8-.5c0-.4.1-1.1.4-2.3l3-11.1q.45-1.8.9-2.4c.2-.4.6-.6 1.1-.6.4 0 .7.2.8.5 0 .3-.1 1-.4 2.2l-1.1 4.1h6.2l.6-2.3c.6-2.2.9-3.9.8-4.9-.1-1.1-.6-1.9-1.6-2.6s-2.4-1.1-4.2-1.1c-1.3 0-2.6.2-3.7.7-1.2.5-2.1 1.1-2.9 1.9s-1.4 1.6-1.7 2.5c-.6 1.1-1 2.4-1.5 4.1zM105.4 137.7c-1.3-.8-2-1.6-2.2-2.1-.2-.6-.1-1.5.2-2.6.3-.9.6-1.6 1-2s1-.7 1.5-.7c.6 0 .9.2 1 .5s0 1.1-.3 2.3l-.8 2.6h9.3l.4-1.4c.8-2.8 1.1-4.8.9-5.9-.3-1.2-1.2-2.1-2.8-2.9s-3.7-1.1-6.3-1.1c-1.7 0-3.2.2-4.7.6l2.1-8c1.5-5.5 2.4-9.3 2.7-11.5s0-4.2-.8-6.1c-.9-1.9-2.3-3.3-4.4-4.2-2-.9-4.5-1.4-7.3-1.4-3 0-5.8.5-8.3 1.5s-4.7 2.4-6.5 4.3c-1.8 1.8-3.2 3.9-4 6.1-.9 2.2-2 6-3.4 11.4l-2.4 9.1c-1.5 5.5-2.4 9.3-2.7 11.5s0 4.2.8 6.1c.9 1.9 2.3 3.3 4.4 4.2 2 .9 4.5 1.4 7.3 1.4 3 0 5.8-.5 8.3-1.5s4.7-2.4 6.5-4.3c.2-.2.4-.5.6-.7q1.05.9 2.7 2.1c2 1.5 3.3 2.5 3.7 3.2.4.6.3 2-.3 4.1-.3.9-.6 1.7-1.1 2.1-.5.5-1 .7-1.7.7-.6 0-1.1-.2-1.2-.6s0-1.2.4-2.5l1.2-4.3h-9.3l-.7 2.3c-.8 2.6-1.1 4.7-.9 6.1s1.1 2.6 2.7 3.5 3.7 1.4 6.4 1.4c2.4 0 4.7-.4 6.7-1.2 2.1-.8 3.6-1.8 4.6-3s1.8-3 2.6-5.5c1-3.4 1.2-5.9.4-7.5-.3-1.7-2.5-3.6-6.3-6.1M86.8 133c-.8 3.1-1.5 5.1-2 6-.5.8-1.2 1.2-2.2 1.2-.9 0-1.4-.4-1.5-1.1 0-.7.3-2.6 1.2-5.7l6.7-24.9c.7-2.7 1.4-4.4 1.9-4.9.5-.6 1.2-.8 1.9-.8.9 0 1.3.3 1.4 1q.15 1.05-.9 4.8z" class="st1"></path><path d="m110.7 123.8 1.6-3.7h2.3l-.9 3.7h6.7l3-20.8H114l-10 20.8zm6.8-16.1c-.8 3.5-1.4 6.4-1.8 8.8h-2.2c.7-1.9 2.1-4.9 4-8.8M152.7 115.7l-8.5 21.1-.3-11.5 13.2-22.1h-11.9l-10.8 19 5.1-19h-12.7l-13.1 48.9h12.7l5.6-21-.4 21h13.1v-.3h3.2l2.3-6.5h3.4l-1.2 6.5h9.6l4.3-36.1zm2.3 23.2h-3.2c1.1-3.2 3-8.2 5.9-15.2-1.2 6.1-2 11.1-2.7 15.2" class="st1"></path></g><!-- source: https://football-logos.cc --></svg>